<svg version="1.1" id="Layer_1" xmlns="http://www.w3.org/2000/svg" xmlns:xlink="http://www.w3.org/1999/xlink" x="0px" y="0px"
	 width="100%" viewBox="0 0 672 560" enable-background="new 0 0 672 560" xml:space="preserve">
<path fill="#000000" opacity="1.000000" stroke="none" 
	d="
M89.080261,279.790100 
	C94.740570,282.751923 99.779007,285.993958 104.435631,289.807007 
	C109.885681,294.269806 112.628708,299.294769 110.113869,306.816040 
	C107.089622,315.860779 107.813072,316.296265 117.151634,316.750641 
	C123.132484,317.041626 129.130966,317.417847 135.056519,318.230194 
	C138.630417,318.720123 139.903824,317.223480 140.392624,314.161072 
	C140.707184,312.190277 141.042725,310.222321 141.405212,308.259827 
	C142.092545,304.538513 144.145279,301.607941 147.636368,300.383545 
	C152.256836,298.762939 155.225616,295.721893 157.047821,291.406830 
	C160.950668,282.164673 167.773438,279.361115 177.719070,279.560455 
	C200.868683,280.024506 224.034134,279.901733 247.174103,280.942596 
	C259.312408,281.488586 271.442078,282.257263 283.567291,283.052582 
	C291.168274,283.551086 297.414093,295.398926 294.221313,303.861298 
	C291.930023,309.934296 291.764038,315.805969 293.544891,321.919250 
	C294.356293,324.704590 295.943054,325.961853 298.940552,325.974976 
	C305.933350,326.005554 312.926270,326.256195 319.916412,326.497528 
	C322.392426,326.583008 323.722931,325.675232 323.656830,323.073486 
	C323.402466,313.062653 323.823730,303.098785 325.557953,293.207642 
	C325.743652,292.148438 325.402252,290.863922 324.942291,289.848358 
	C323.294861,286.210663 321.320099,282.715271 319.781708,279.035431 
	C316.390503,270.923553 311.049011,267.845795 301.723297,268.010712 
	C287.306946,268.265594 276.258911,260.022552 267.527710,249.070755 
	C261.025391,240.914688 256.612549,231.569901 254.302658,221.335434 
	C252.522781,213.449280 253.951553,211.954163 261.875702,211.591599 
	C282.318909,210.656250 298.527252,218.329834 310.447479,234.941025 
	C314.495544,240.582153 317.400299,246.812820 317.389069,253.878372 
	C317.372864,264.079803 323.456116,271.463348 328.550598,280.087799 
	C331.090637,272.783142 333.203430,266.760315 329.819397,259.142151 
	C318.491241,233.640259 323.956665,210.267715 341.441040,189.448166 
	C348.064209,181.561646 355.797607,174.610855 362.973236,167.183578 
	C366.695679,163.330597 370.087067,159.224365 371.755920,153.987885 
	C372.518768,151.594284 373.799652,149.809479 376.615723,149.726318 
	C379.649811,149.636734 381.126007,151.568420 382.097260,154.012802 
	C385.685944,163.044556 387.660492,172.508774 388.875885,182.085266 
	C391.486603,202.656219 389.168762,222.292969 376.994995,239.891251 
	C369.021149,251.418182 358.127808,259.475464 346.120483,266.243561 
	C344.223572,267.312775 342.311493,268.253906 341.368927,270.437592 
	C336.643280,281.385925 334.746307,292.948486 333.188660,305.702576 
	C338.809631,301.253418 343.578674,297.487030 348.336456,293.706421 
	C349.438538,292.830658 349.859131,291.551270 350.238617,290.263458 
	C357.373901,266.048340 375.371033,255.505219 398.735077,251.627762 
	C407.530487,250.168106 416.359161,250.848785 425.177032,250.938141 
	C430.376801,250.990845 432.493408,254.072418 430.624786,258.861023 
	C420.681610,284.342010 403.611664,301.274750 375.358734,304.768768 
	C369.064453,305.547180 363.037506,304.243744 357.180969,302.377197 
	C353.031006,301.054565 349.778656,301.782166 346.609375,304.491241 
	C343.193237,307.411316 339.654968,310.188232 336.184692,313.045441 
	C334.601562,314.348907 333.512573,315.886078 333.200958,318.044037 
	C332.218445,324.848236 333.095917,325.897858 340.001770,325.956848 
	C368.664154,326.201691 397.321045,325.667480 425.953979,324.566925 
	C454.397186,323.473633 482.824310,321.872986 511.206299,319.612946 
	C518.530518,319.029755 519.242065,318.088348 518.881775,310.649658 
	C518.659424,306.059296 516.872681,302.318451 513.660706,299.125702 
	C511.714203,297.190887 511.108307,294.790405 512.102539,292.233490 
	C513.068909,289.748260 515.360840,288.955200 517.763123,288.787598 
	C536.625916,287.471649 553.748535,280.596771 570.078918,271.755157 
	C582.648865,264.949463 595.816833,262.138916 609.945740,262.734314 
	C617.900024,263.069550 621.359131,265.737274 623.509399,273.312866 
	C627.641174,287.869263 626.867065,302.784912 626.031250,317.517487 
	C624.492004,344.647797 617.627014,370.743591 607.660217,395.941254 
	C596.914795,423.107391 582.325989,448.024384 562.385559,469.599762 
	C561.158447,470.927368 560.151978,472.458771 558.857422,474.135590 
	C565.089600,480.813110 572.871338,485.013794 580.574768,489.139771 
	C598.680481,498.837433 617.755798,505.429535 638.596558,505.683472 
	C643.135437,505.738770 647.524719,504.898407 651.885803,503.719238 
	C653.869324,503.182953 656.444031,501.693787 657.707581,504.281372 
	C659.040527,507.010895 656.362671,508.415527 654.545166,509.744629 
	C647.874817,514.622620 640.134888,516.495789 632.097900,517.289917 
	C615.428711,518.937012 599.702148,514.915527 584.347107,508.987671 
	C574.035339,505.006866 564.602966,499.333862 555.417664,493.272247 
	C553.070984,491.723602 551.509094,491.870056 549.281372,493.565216 
	C523.827454,512.934448 495.037384,521.562622 463.182159,519.233704 
	C444.262360,517.850342 426.768219,511.523193 410.659882,501.569153 
	C407.831512,499.821411 405.876251,499.801697 403.012360,501.421783 
	C359.372284,526.108826 315.480743,527.520569 271.518280,502.297272 
	C268.345367,500.476807 265.908966,500.259979 262.853607,502.173950 
	C248.665939,511.061310 233.175049,516.473694 216.612106,518.614136 
	C185.312820,522.658813 156.758530,515.641479 131.333435,496.731323 
	C124.441513,491.605408 124.619171,491.610870 117.263893,496.283386 
	C95.740295,509.956390 72.737198,518.827148 46.684444,517.315613 
	C38.012489,516.812561 29.973379,514.406189 23.206844,508.674072 
	C21.928419,507.591095 20.562216,506.302765 21.573439,504.427185 
	C22.568436,502.581665 24.347448,502.920502 26.007389,503.385590 
	C44.500061,508.566559 62.019142,504.021271 79.172211,497.597321 
	C91.023216,493.159088 102.108414,487.060059 112.129425,480.001953 
	C112.565491,478.010254 111.580963,477.249542 110.779434,476.439087 
	C79.254639,444.564697 59.628178,406.197906 48.563000,363.064240 
	C43.576218,343.625031 40.309643,324.000854 40.905502,303.893127 
	C41.086910,297.771362 41.849289,291.622253 42.901409,285.582520 
	C44.121174,278.580383 48.394588,274.446777 55.381927,273.891815 
	C66.921371,272.975342 78.424583,273.091888 89.080261,279.790100 
M495.067047,434.848267 
	C488.764984,435.338440 482.464325,435.848083 476.160553,436.314850 
	C461.374512,437.409637 446.516113,437.541351 431.763092,438.720428 
	C408.005249,440.619202 384.228424,441.699707 360.426727,442.254425 
	C311.264709,443.400238 262.220001,440.886078 213.182190,437.524170 
	C185.273941,435.610840 157.390884,433.823029 129.738937,429.412567 
	C126.378128,428.876465 122.957138,428.717773 118.634628,428.292786 
	C124.347847,437.074005 130.387909,444.329437 136.647369,451.418152 
	C137.477371,452.358093 138.631714,452.486420 139.766846,452.797302 
	C160.857437,458.573120 182.452454,461.419983 204.123779,463.690186 
	C221.669296,465.528168 239.260651,466.926544 256.826447,468.575409 
	C258.838501,468.764313 261.939606,468.280396 261.653015,471.417419 
	C261.400299,474.183838 258.393280,473.881958 256.336670,473.872253 
	C251.510925,473.849487 246.687683,473.503235 241.861359,473.356628 
	C222.046692,472.754822 202.335632,470.910248 182.660858,468.566376 
	C171.625549,467.251740 160.661560,465.487915 149.334915,463.229736 
	C159.351120,474.926971 183.172043,487.138763 198.491379,488.738800 
	C201.959946,489.101074 205.467758,489.413605 208.710632,490.870605 
	C210.163116,491.523163 211.236877,492.570923 211.097290,494.316681 
	C210.978973,495.796539 210.013275,496.778198 208.691818,497.233398 
	C207.292465,497.715393 205.824478,498.150909 204.359772,498.265533 
	C194.734634,499.018677 185.511780,497.434845 176.515015,493.847839 
	C149.585480,483.110992 130.242691,463.342743 113.823563,440.486359 
	C92.525879,410.838806 78.742813,377.901215 72.575111,341.784424 
	C69.951004,326.418182 69.209122,311.029358 69.669159,295.509308 
	C69.775131,291.933990 71.656693,288.477234 70.488426,284.586914 
	C68.902473,284.403687 67.440727,284.156677 65.969925,284.077271 
	C54.137333,283.438507 52.650490,284.752960 52.129185,296.525452 
	C50.739086,327.917664 56.142601,358.179779 67.273491,387.496185 
	C73.803154,404.693970 81.648987,421.318726 92.095634,436.411926 
	C102.429260,451.341797 111.509232,467.418182 129.297333,475.951874 
	C136.070694,479.201355 142.111923,484.770874 148.685501,489.013550 
	C169.801620,502.642181 193.002472,505.499390 217.273346,502.066925 
	C233.205139,499.813782 247.682816,493.571320 260.795471,484.242004 
	C264.674133,481.482422 268.495941,480.423401 272.683044,483.617981 
	C288.968903,496.043335 307.514832,501.930573 327.841156,503.179688 
	C351.588165,504.639069 373.930725,500.399475 394.413452,487.949310 
	C409.037292,479.060394 405.208466,479.293579 419.809570,488.035645 
	C451.134521,506.790955 483.631866,508.555176 516.764954,493.377960 
	C534.957886,485.044403 548.225098,470.499634 560.609131,455.397644 
	C582.021301,429.286194 596.736023,399.596130 605.920288,367.117371 
	C613.361938,340.800964 617.417969,314.118225 614.843628,286.717590 
	C613.604919,273.533325 613.146912,273.278137 599.865967,274.235626 
	C599.533569,274.259613 599.200317,274.289062 598.867554,274.287323 
	C596.031921,274.272552 595.008179,275.589691 595.564514,278.406311 
	C600.307312,302.419403 597.352417,326.187927 592.553955,349.738647 
	C585.642517,383.659180 571.843140,414.700439 551.426636,442.689240 
	C535.889893,463.988495 517.354492,481.882965 492.845581,492.735626 
	C484.860107,496.271637 476.746399,499.291748 467.784790,498.177063 
	C465.149902,497.849304 462.107849,497.276703 461.907593,493.879303 
	C461.723724,490.759552 464.717896,490.513214 466.846436,489.891937 
	C473.398407,487.979584 480.064026,486.450531 486.407654,483.857941 
	C497.964478,479.134735 507.979645,472.097473 518.417603,463.226898 
	C516.324036,463.481720 515.670227,463.523102 515.031555,463.644623 
	C490.482452,468.315582 465.705048,471.357208 440.807861,473.161774 
	C422.388306,474.496796 403.982178,476.012726 385.498962,476.708832 
	C362.163605,477.587677 338.855988,477.334076 315.534210,477.082794 
	C311.378448,477.038025 307.225159,476.533234 303.076477,476.174316 
	C301.523010,476.039886 299.863434,475.594910 300.085602,473.616516 
	C300.267792,471.994385 301.846924,471.825043 303.207153,471.750427 
	C307.530060,471.513336 311.854767,471.111145 316.178406,471.116089 
	C346.171234,471.150421 376.139099,470.573425 406.095215,468.863800 
	C437.702057,467.059967 469.121857,463.662262 500.343414,458.550781 
	C517.188782,455.792877 534.671326,453.722900 543.399048,435.521667 
	C543.966125,434.339172 545.053101,433.411133 545.661072,432.241455 
	C546.215698,431.174408 547.513123,430.161133 546.238831,428.341858 
	C529.627991,430.795898 512.850342,433.178497 495.067047,434.848267 
M269.402954,398.950073 
	C298.038239,400.448730 326.697815,399.957672 355.346558,399.801971 
	C378.994720,399.673462 402.681580,399.743713 426.275787,398.400238 
	C454.171814,396.811737 482.065521,394.758911 509.858215,391.656647 
	C528.533325,389.572113 547.241516,387.763214 565.793335,384.698883 
	C567.892456,384.352142 570.513123,384.418671 571.527893,382.244049 
	C575.158325,374.464233 577.891357,366.375793 579.472168,357.423126 
	C415.095886,375.871796 251.435883,375.601227 87.191498,357.655823 
	C88.761383,365.432800 91.293701,372.241730 93.657013,379.109650 
	C94.883659,382.674347 97.142632,384.219940 100.906517,384.831879 
	C117.826836,387.582855 134.863129,389.277710 151.894043,391.106140 
	C190.637833,395.265564 229.437180,398.480927 269.402954,398.950073 
M82.453011,337.036987 
	C82.756210,338.501129 83.095779,339.958801 83.356529,341.430450 
	C84.771774,349.417999 85.511444,349.937927 93.606331,350.674866 
	C112.668571,352.410248 131.722382,354.242767 150.770432,356.128540 
	C184.417618,359.459625 218.143509,361.994446 251.905548,363.366241 
	C279.690430,364.495148 307.531281,364.768524 335.365265,364.761719 
	C361.029816,364.755432 386.676270,364.184387 412.314758,363.392944 
	C440.941437,362.509277 469.469482,359.805176 498.032532,357.771698 
	C524.601379,355.880157 551.075256,353.075043 577.510559,349.835266 
	C580.625427,349.453522 582.001648,348.015167 582.501648,345.324799 
	C583.564697,339.604187 584.489136,333.857971 585.511597,328.129608 
	C586.190063,324.328125 584.837036,322.996338 580.900085,323.551453 
	C573.162903,324.642487 565.393799,325.583313 557.609070,326.247650 
	C529.592896,328.638489 501.592499,331.340973 473.533356,333.067963 
	C443.618011,334.909180 413.654297,336.385651 383.691498,336.949097 
	C313.379272,338.271240 243.110428,337.311157 172.955582,331.506256 
	C143.611740,329.078247 114.187698,327.614990 84.984917,323.643829 
	C82.363419,323.287384 81.089073,324.090759 81.335503,326.762207 
	C81.625313,329.903992 82.032661,333.034943 82.453011,337.036987 
M536.337952,421.670532 
	C541.103271,420.945679 545.879700,420.284698 550.628235,419.462952 
	C552.400513,419.156281 554.321899,418.849304 555.373657,417.054260 
	C559.823120,409.459991 563.808472,401.637726 567.471313,393.157135 
	C411.405060,411.804260 255.885590,410.896820 100.369026,393.616455 
	C99.627670,395.560883 100.715317,396.998291 101.458572,398.400238 
	C104.500595,404.138336 107.769890,409.757996 110.727104,415.538116 
	C112.113113,418.247162 114.157555,419.255280 117.010490,419.687042 
	C144.813446,423.894684 172.685318,427.412354 200.701950,429.989136 
	C236.545380,433.285858 272.463593,435.021973 308.414001,435.512604 
	C357.878754,436.187775 407.322876,435.281006 456.664062,430.933411 
	C483.026550,428.610535 509.334808,426.010071 536.337952,421.670532 
M368.738037,185.818375 
	C373.677216,186.013504 371.194580,189.302322 370.628784,191.130234 
	C367.511749,201.200623 362.502960,210.448456 357.626343,219.736572 
	C351.114990,232.138107 346.576141,245.241272 343.038300,259.091644 
	C383.510559,238.714920 385.816833,193.199341 375.515289,165.996063 
	C369.829315,173.477966 362.974274,179.565689 356.553101,186.068954 
	C350.922394,191.771667 345.353912,197.486923 341.222595,204.416321 
	C331.475952,220.764252 329.124969,237.720490 337.004517,256.613068 
	C338.523834,251.113998 339.709381,246.656418 340.987518,242.225525 
	C346.826630,221.983322 359.136597,204.874191 368.738037,185.818375 
M222.690796,323.700256 
	C233.169373,324.152618 243.656708,324.461029 254.124008,325.098450 
	C264.282898,325.717072 264.273834,325.865448 265.177917,315.817963 
	C265.694946,310.071838 265.247009,309.469238 259.462280,309.302643 
	C228.331802,308.405853 197.214569,306.790894 166.054611,307.439362 
	C162.565430,307.511963 159.063324,307.786194 155.603348,308.241547 
	C150.790161,308.875000 151.776306,312.956207 151.396271,316.045288 
	C150.975220,319.468018 153.461929,319.569092 155.952011,319.716248 
	C177.885498,321.012573 199.816177,322.356201 222.690796,323.700256 
M540.861450,317.115845 
	C547.821716,316.620544 554.791016,316.226074 561.739624,315.601105 
	C568.519409,314.991302 575.285706,314.207703 582.041748,313.369781 
	C584.324158,313.086700 586.859619,312.794586 586.821472,309.479370 
	C586.725830,301.176239 587.491272,292.824554 586.188965,284.586182 
	C584.831360,275.997589 584.293274,275.782959 576.567017,279.943481 
	C562.602112,287.463409 548.123291,293.580139 532.558472,296.948303 
	C530.693787,297.351776 528.472107,296.974213 527.032349,299.009521 
	C527.341675,302.569855 529.257019,305.796661 529.528931,309.518616 
	C530.163147,318.203186 530.349121,318.190308 538.970154,317.395111 
	C539.300598,317.364624 539.627563,317.295166 540.861450,317.115845 
M178.512161,299.961853 
	C186.003021,300.033936 193.500320,299.933167 200.983521,300.211212 
	C221.599533,300.977325 242.206360,301.996429 262.823822,302.714172 
	C270.305237,302.974609 273.821777,300.268860 276.953796,292.698273 
	C270.104645,292.254211 263.355988,291.597839 256.594574,291.416870 
	C230.135590,290.708679 203.675781,289.954254 177.200394,290.316650 
	C169.681610,290.419586 167.790588,291.737762 165.158813,299.396698 
	C169.263519,300.461945 173.421555,299.744080 178.512161,299.961853 
M361.114746,283.170380 
	C360.669434,284.014191 360.224152,284.857971 359.146576,286.899841 
	C362.878967,285.083160 365.580963,283.948212 368.108124,282.506714 
	C378.999603,276.294159 390.960114,272.482361 402.258270,267.188263 
	C403.652161,266.535095 405.239929,265.968994 406.175354,267.775848 
	C407.143951,269.646820 405.509460,270.515900 404.307953,271.300079 
	C401.944305,272.842743 399.555634,274.382996 397.038574,275.648346 
	C386.182373,281.105804 375.264893,286.441345 364.400482,291.882782 
	C362.888977,292.639832 361.066772,293.190674 360.253326,295.089996 
	C380.696136,301.804535 409.829285,288.083374 419.663574,260.489899 
	C412.055298,258.610016 404.487305,259.013916 396.982513,260.367859 
	C382.213806,263.032257 369.283020,268.801361 361.114746,283.170380 
M297.390900,231.093750 
	C287.512299,223.546051 276.828491,218.682587 263.897644,220.508957 
	C266.732086,242.400497 289.686401,264.015350 307.152100,260.974030 
	C300.779724,254.942047 295.660095,248.112000 287.293427,245.158600 
	C285.936829,244.679733 283.611542,243.942123 284.318512,242.446014 
	C286.187622,238.490601 282.785645,237.615906 281.042175,235.826691 
	C279.424927,234.167007 277.515442,232.795486 275.783997,231.242035 
	C275.147461,230.670944 274.798706,229.886337 275.169373,228.999817 
	C275.548462,228.093048 276.479828,227.632690 277.185303,228.044159 
	C282.759949,231.295471 288.991425,233.884216 293.610748,238.189682 
	C299.077515,243.285019 304.164246,248.847366 310.253357,255.128174 
	C309.047516,244.668900 304.268402,237.695068 297.390900,231.093750 
M80.147552,309.904846 
	C80.255798,312.576324 82.365395,312.986023 84.297195,313.426117 
	C97.061508,316.334045 98.353668,315.405121 100.078812,302.614044 
	C100.249680,301.347137 100.274643,300.323944 99.361412,299.420410 
	C94.268181,294.381378 88.408150,290.571533 81.353333,287.471619 
	C79.548065,295.135864 80.174118,302.104401 80.147552,309.904846 
M284.877838,301.143646 
	C284.857727,299.997284 285.010468,298.782928 283.284912,297.929230 
	C280.681030,299.943359 278.606445,302.556946 276.714081,305.904968 
	C278.986969,307.258759 280.651550,309.129456 283.454224,309.080566 
	C285.303284,306.917175 284.433167,304.285919 284.877838,301.143646 
z"/>
<path fill="#000000" opacity="1.000000" stroke="none" 
	d="
M174.741913,542.213989 
	C196.260620,546.567688 217.202209,546.056946 237.893295,539.866089 
	C247.647385,536.947693 257.150574,533.510559 264.532837,525.944885 
	C266.544189,523.883545 269.287292,523.637756 271.144073,525.995911 
	C276.898346,533.303955 284.945740,537.110718 293.296875,539.830566 
	C328.186768,551.193726 362.120972,549.475586 394.556946,531.185425 
	C396.744720,529.951782 398.654114,528.446655 400.304474,526.475281 
	C402.357758,524.022583 405.481232,522.914307 407.683411,525.556763 
	C412.314178,531.113159 418.687347,533.838257 424.930908,536.184204 
	C464.466644,551.039001 502.299774,547.962402 537.822937,524.237671 
	C540.083984,522.727600 542.309143,521.235535 542.969421,517.916565 
	C543.691284,514.288452 546.896057,513.848145 550.405396,516.841309 
	C558.720642,523.933350 568.467407,527.977661 578.831726,530.865112 
	C586.481934,532.996399 594.288025,532.881714 602.122498,532.869385 
	C604.508423,532.865662 608.514282,531.096436 608.934937,534.585449 
	C609.369263,538.188110 605.045227,537.954041 602.491394,538.497986 
	C584.309753,542.370911 567.826599,537.377563 552.499084,527.992126 
	C548.506531,525.547302 546.408691,525.625061 542.780579,528.671387 
	C527.310974,541.660339 509.009583,548.546631 489.197968,551.249878 
	C460.442017,555.173401 433.144196,550.609131 407.883789,535.824036 
	C405.232697,534.272278 403.256409,534.532349 400.602875,536.113403 
	C364.402832,557.682312 326.646362,561.663208 287.290314,545.588440 
	C281.428314,543.194153 275.842407,540.151123 270.818695,536.243408 
	C268.651855,534.557922 266.996246,534.746338 264.572662,536.054565 
	C226.875092,556.402405 188.334824,558.676086 149.032257,540.908936 
	C142.629929,538.014709 136.759857,534.102661 131.726013,529.180725 
	C129.006760,526.521912 127.104347,526.336548 123.686188,528.461670 
	C109.772530,537.112061 94.790016,541.983337 78.099686,539.294189 
	C75.298676,538.842957 72.503929,538.358765 69.972725,536.993774 
	C69.084808,536.514893 68.264496,535.820068 68.396515,534.665161 
	C68.562950,533.209473 69.712730,532.812256 70.929062,532.789917 
	C72.924896,532.753235 74.926857,532.796570 76.920082,532.912170 
	C91.826012,533.776672 105.642822,530.299744 118.477226,522.694336 
	C121.106895,521.136047 123.077141,518.870850 125.405296,517.001831 
	C128.682114,514.371338 131.458664,515.046875 132.588028,519.059448 
	C133.444565,522.102783 135.439423,523.880554 137.719376,525.538574 
	C148.777802,533.580139 161.013565,539.048401 174.741913,542.213989 
z"/>
<path fill="#000000" opacity="1.000000" stroke="none" 
	d="
M448.368591,78.707542 
	C442.522217,74.073105 438.108856,69.104019 439.441711,61.210579 
	C439.777039,59.224564 437.932434,58.382832 436.866974,57.186729 
	C429.382599,48.784824 424.703705,39.344746 425.644104,27.721771 
	C425.865723,24.982618 426.006500,22.018770 428.985565,21.065588 
	C432.426331,19.964676 433.409058,23.084639 434.720001,25.363338 
	C439.243439,33.225880 446.373688,38.017845 454.291321,41.833881 
	C458.803558,44.008644 463.548798,45.584377 468.387146,46.867157 
	C485.213470,51.328308 502.312836,55.283623 512.480774,71.808861 
	C516.079834,69.859566 518.107849,67.224854 520.010132,64.590874 
	C528.526123,52.799564 545.523254,47.998554 557.866638,57.585007 
	C560.032715,59.267326 562.804688,59.500084 565.257446,60.501423 
	C566.927185,61.183071 568.133972,62.308559 567.990295,64.243332 
	C567.868103,65.889526 566.841797,67.015266 565.274109,67.485825 
	C553.187561,71.113655 547.884216,79.990051 544.875488,91.678955 
	C540.039246,110.467415 523.175781,123.969856 504.106537,123.046959 
	C491.812531,122.451950 484.176666,127.235046 478.228943,136.865265 
	C477.704956,137.713715 477.071106,138.494492 476.485382,139.304611 
	C471.535370,146.150803 469.693787,146.098175 465.331848,138.715942 
	C463.797546,136.119263 461.846466,134.969894 458.811432,135.158737 
	C453.580841,135.484131 449.562408,132.842758 446.027527,129.347748 
	C444.842499,128.176071 443.372498,126.631706 443.901794,125.028893 
	C445.410187,120.461067 442.583527,118.393745 439.541992,116.246811 
	C438.873901,115.775208 438.328918,115.104973 437.798767,114.466797 
	C436.381012,112.760185 435.027191,110.941200 436.255524,108.611671 
	C437.654083,105.959373 440.129944,106.355980 442.424866,106.900070 
	C449.204193,108.507378 455.945068,108.287178 462.704132,106.819733 
	C467.377563,105.805084 471.353882,103.524689 475.013000,100.387375 
	C473.915009,98.253792 471.680298,98.209122 470.004242,97.348808 
	C463.878601,94.204529 457.986969,91.030113 455.328125,83.922096 
	C454.328735,81.250389 450.834351,80.691101 448.368591,78.707542 
M516.872742,79.575569 
	C512.064514,83.218178 509.246552,79.207230 506.923523,76.368126 
	C498.380890,65.927628 487.238251,60.367558 474.390717,57.302597 
	C464.048340,54.835281 453.721375,52.224106 444.521606,46.405170 
	C441.509888,44.500206 439.333710,41.382603 435.381805,39.941845 
	C435.545715,41.083782 435.515137,41.748371 435.746521,42.303814 
	C436.257050,43.529121 436.818481,44.748138 437.501160,45.884388 
	C442.619629,54.403442 450.241180,59.743778 459.419739,63.127117 
	C460.956024,63.693409 462.878693,64.360367 462.185699,66.563408 
	C461.524689,68.664940 459.612457,68.371315 457.966461,67.970383 
	C454.658447,67.164619 451.378937,66.241730 448.087677,65.367172 
	C450.499298,71.988647 455.317139,75.399757 461.496460,76.772095 
	C465.709229,77.707695 469.706390,78.564278 473.098755,81.628952 
	C474.932220,83.285255 476.067963,84.355652 473.894043,86.285271 
	C471.222748,88.656372 472.833710,90.048584 475.023956,91.106003 
	C476.500519,91.818871 478.152313,92.208450 479.759949,92.603104 
	C485.549988,94.024490 491.290222,93.829872 496.992004,92.029892 
	C498.621704,91.515427 500.457520,91.261772 501.347260,93.203964 
	C502.287354,95.255966 500.585999,96.199966 499.204468,97.108826 
	C496.944305,98.595695 494.389435,99.735085 491.770020,99.846970 
	C487.406616,100.033356 484.213684,102.169960 481.311859,104.995819 
	C475.676453,110.483673 468.529449,112.656143 461.136047,114.113846 
	C457.260437,114.877983 453.255341,114.985291 448.984924,115.422371 
	C452.636780,118.447601 458.109619,115.769333 460.800812,119.972931 
	C459.176544,123.552498 455.345245,122.493950 452.383911,124.810272 
	C460.939514,130.386246 466.623199,120.161713 474.105164,121.112381 
	C473.722870,125.977676 468.739960,126.650330 467.620728,130.110809 
	C468.477295,131.736191 469.535858,132.928223 471.486816,133.412125 
	C474.691833,129.920837 477.916992,126.374176 481.179413,122.862144 
	C485.454681,118.259735 490.279907,116.179970 497.021912,116.395950 
	C516.463501,117.018753 533.434937,107.304237 538.683777,85.738022 
	C540.061218,80.078522 543.096680,75.341347 546.755737,70.972504 
	C548.630371,68.734207 550.804138,66.746414 552.835571,64.652771 
	C546.430115,58.394360 537.342041,58.500660 530.255005,64.492592 
	C525.233093,68.738510 522.465332,74.899910 516.872742,79.575569 
z"/>
<path fill="#000000" opacity="1.000000" stroke="none" 
	d="
M169.737915,132.266922 
	C170.991913,133.591171 171.690857,135.018158 173.535309,135.554413 
	C176.694931,133.952133 178.814072,130.847595 181.612152,128.572342 
	C191.435730,120.584259 203.827499,120.354225 213.571548,128.394485 
	C215.867981,130.289383 218.569122,130.942123 221.145477,132.054260 
	C222.899658,132.811493 224.363098,133.962631 224.144226,136.173141 
	C223.920349,138.433884 222.298904,139.021240 220.326080,139.369675 
	C210.506714,141.103897 203.903397,146.683945 200.091019,155.928452 
	C193.703003,171.418503 182.010498,180.509766 165.451889,182.549088 
	C158.717804,183.378418 154.875458,186.956665 152.150436,192.368835 
	C150.363007,195.918808 149.163223,199.765793 147.718567,203.486847 
	C146.755020,205.968689 145.262924,207.934998 142.419556,208.153259 
	C139.881607,208.348068 138.624603,206.611130 137.542480,204.567871 
	C135.937485,201.537308 133.610031,201.061279 130.417603,202.424957 
	C122.156570,205.953690 116.046494,202.753296 114.454262,194.101913 
	C114.105034,192.204361 113.116241,191.680008 111.563652,191.271255 
	C109.804573,190.808151 107.978439,190.387344 106.385139,189.557205 
	C104.051125,188.341141 102.320694,186.423370 102.883156,183.534500 
	C103.458641,180.578751 105.729668,179.918823 108.467018,179.587051 
	C120.398842,178.140930 131.106079,174.199417 138.760696,163.720261 
	C135.590805,162.260330 132.480896,160.836761 129.378479,159.397095 
	C124.978699,157.355423 121.497055,154.316223 119.841621,149.676331 
	C118.981117,147.264496 116.910568,146.645523 115.098480,145.569534 
	C108.612114,141.718063 103.148170,137.346039 105.521019,128.495285 
	C106.083725,126.396400 104.355774,125.124611 103.229904,123.751106 
	C98.227325,117.648178 96.085579,110.696915 96.713737,102.841484 
	C96.876556,100.805313 97.300766,98.858124 98.378624,97.146339 
	C100.349197,94.016785 103.858078,93.648506 105.608353,96.866295 
	C111.837814,108.318848 122.767677,111.947075 134.241547,114.892334 
	C142.291122,116.958595 150.504028,118.470001 157.885040,122.669792 
	C162.289459,125.175919 166.203751,128.180725 169.737915,132.266922 
M118.779800,118.893364 
	C113.974030,117.181450 110.256783,113.575340 105.706970,110.734535 
	C105.489258,113.294380 106.266724,114.960579 107.084427,116.563599 
	C110.468361,123.197441 116.280968,126.908112 122.943329,129.565933 
	C124.596344,130.225372 127.050835,130.576157 126.388832,132.979050 
	C125.674492,135.571899 123.270866,134.638123 121.300705,134.477173 
	C118.712601,134.265778 116.431976,132.358994 113.333984,132.997421 
	C113.821754,135.735611 115.554878,137.171417 117.438950,138.561279 
	C121.232605,141.359848 125.715096,141.943680 130.166641,142.566544 
	C133.216125,142.993225 135.347198,144.339386 136.307846,147.357788 
	C134.129456,149.231506 130.702179,147.443634 129.104843,150.269714 
	C131.010345,152.715622 134.487823,150.513519 136.022675,152.374039 
	C141.464600,158.970566 148.206497,156.647186 154.820969,155.647446 
	C156.884155,155.335617 159.561432,152.704941 160.752548,156.158585 
	C161.699829,158.905167 158.672302,159.923813 156.751434,161.102539 
	C155.772400,161.703323 154.642883,162.279526 153.530106,162.402374 
	C149.323837,162.866745 146.736984,165.614929 144.263123,168.595169 
	C136.703415,177.702209 127.179062,183.566544 115.368156,185.935455 
	C119.518501,188.781433 124.210007,182.173798 128.080948,186.599335 
	C127.790688,189.120041 125.911484,189.774155 124.471153,190.824387 
	C123.372536,191.625458 122.088829,192.446152 123.036797,194.025482 
	C124.009987,195.646866 125.678200,196.336197 127.321785,195.354584 
	C128.699203,194.531906 129.805405,193.186050 130.880783,191.941452 
	C132.957489,189.538010 135.077377,187.192963 137.776917,185.471848 
	C138.977051,184.706665 140.296707,184.392471 141.409195,185.591904 
	C142.421951,186.683807 141.771393,187.765930 141.109955,188.758316 
	C139.745560,190.805359 138.356155,192.835724 136.920807,194.956039 
	C138.800034,196.137848 140.199753,197.314011 142.193375,197.277725 
	C142.431168,197.010788 142.710114,196.796539 142.856781,196.513672 
	C143.238235,195.778076 143.649673,195.039856 143.894836,194.254517 
	C147.245209,183.522339 153.372162,176.573181 165.546753,175.351242 
	C175.144806,174.387909 183.619522,169.662888 188.422318,160.930084 
	C193.759674,151.225266 199.122513,141.783188 208.654114,135.515030 
	C208.840622,135.392380 208.784927,134.901443 208.886353,134.336578 
	C206.637131,131.783966 203.673599,130.721863 200.211853,130.329041 
	C190.907288,129.273163 184.847977,134.577988 179.223816,140.764450 
	C173.770660,146.762787 172.645111,146.990646 167.212143,140.680573 
	C159.815720,132.090057 150.705536,127.026131 139.584167,124.983437 
	C132.734375,123.725311 125.874542,122.189751 118.779800,118.893364 
z"/>
<path fill="#000000" opacity="1.000000" stroke="none" 
	d="
M298.200073,57.185463 
	C302.237061,58.469921 304.522552,57.625179 307.424255,54.467205 
	C316.564728,44.519493 328.373657,40.116741 341.950836,40.684650 
	C343.734192,40.759251 345.353577,41.130180 345.880981,43.066479 
	C346.461945,45.199619 345.326660,46.590504 343.469482,47.408573 
	C339.947784,48.959854 336.611755,50.791054 333.613953,53.236946 
	C329.320435,56.739998 326.476776,61.050011 325.744537,66.689301 
	C327.243774,68.684601 329.883270,68.766411 331.618988,70.312798 
	C333.104309,71.636116 334.016846,73.181686 333.428650,75.146355 
	C332.746460,77.424934 330.684784,77.603073 328.909058,77.154594 
	C325.215912,76.221855 322.082977,77.046486 319.015503,79.137985 
	C311.631165,84.172844 303.917938,83.550713 297.045624,78.717003 
	C288.538055,72.733093 280.062408,71.726143 270.753632,76.076767 
	C268.634216,77.067314 266.237335,78.203239 264.490021,75.604187 
	C262.669891,72.896851 264.432434,70.818176 266.340973,69.110268 
	C275.282318,61.108913 284.997650,55.039742 298.200073,57.185463 
M318.765564,69.148262 
	C319.753174,61.895683 322.893494,55.663868 328.808960,49.642033 
	C320.103088,52.429939 313.790253,56.365551 310.376312,63.858421 
	C308.761597,67.402328 306.942139,67.735565 303.344513,66.073341 
	C296.397644,62.863632 289.265900,63.371487 282.346130,67.329712 
	C290.045624,66.627357 296.167908,69.534264 301.943695,74.295609 
	C305.394653,77.140442 309.942657,77.704712 314.046173,74.803391 
	C316.406250,73.134727 318.919128,72.272591 322.198822,72.675209 
	C320.834076,71.501015 319.210358,71.453827 318.765564,69.148262 
z"/>
<path fill="#000000" opacity="1.000000" stroke="none" 
	d="
M550.354736,302.195129 
	C553.671692,299.889679 556.958496,299.060577 560.504333,300.156769 
	C562.674622,300.827728 564.278687,302.281403 564.556213,304.680664 
	C564.813721,306.906555 563.536316,308.462311 561.817078,309.596649 
	C558.734680,311.630402 555.216492,311.840759 551.806030,311.062439 
	C548.015320,310.197296 547.391052,306.537994 550.354736,302.195129 
z"/>
<path fill="#000000" opacity="1.000000" stroke="none" 
	d="
M540.307617,62.823288 
	C542.822815,62.795700 544.147095,63.752827 544.113159,65.975945 
	C544.085999,67.747108 542.737427,68.486061 541.260437,68.839577 
	C539.647217,69.225708 538.280273,68.629951 537.719910,67.033340 
	C536.998413,64.977638 537.900818,63.587894 540.307617,62.823288 
z"/>
<path fill="#000000" opacity="1.000000" stroke="none" 
	d="
M201.055618,133.909485 
	C200.573730,137.322632 198.926651,138.741882 195.934402,137.491257 
	C194.220306,136.774841 193.347992,135.105255 194.667236,133.506546 
	C196.606552,131.156403 198.897583,130.455231 201.055618,133.909485 
z"/>
</svg>